<svg xmlns="http://www.w3.org/2000/svg" style="display: none;">
  <symbol id="vector1" viewBox="0 0 110 262">
    <path d="M2.79638 261.049L0.164062 259.919C8.74399 240.178 27.1471 227.453 44.9439 215.148C47.0416 213.698 49.1239 212.25 51.1908 210.804C67.614 199.27 89.6086 181.095 91.0054 156.606C91.8802 141.263 84.7047 127.66 77.1071 113.255C72.2723 104.095 67.2763 94.6064 64.5365 84.6217C55.2122 50.5607 75.5646 12.0112 108.979 0.324219L109.93 3.01884C78.4655 14.0341 58.5122 51.7974 67.307 83.8354C69.9623 93.5224 74.8892 102.858 79.6473 111.896C87.0914 126.011 94.7888 140.606 93.8679 156.736C92.4021 182.492 69.7551 201.255 52.8485 213.133C50.802 214.588 48.712 216.041 46.5785 217.491C29.1117 229.568 11.0463 242.056 2.79638 261.049Z" fill="#3C0506"/>
  </symbol>
  <symbol id="vector2" viewBox="0 0 49 212">
    <path d="M3.21681 212.01L0.830078 210.43C41.1358 150.125 55.5405 72.0333 39.3707 1.4534L42.1641 0.819824C58.5105 72.1173 43.983 151.094 3.21681 212.01Z" fill="#3C0506" />
  </symbol>
  <symbol id="vector3" viewBox="0 0 265 261">
    <path d="M259.111 260.797L256.264 260.492C260.654 220.385 265.197 178.919 259.196 138.301C252.511 93.0722 232.727 55.7059 203.564 33.08C171.892 8.53806 132.485 3.21747 105.01 3.07244C68.8565 2.85106 32.7026 10.9426 0.754297 18.0571L0.125 15.2709C32.2191 8.12589 68.6877 0.00375693 105.026 0.22513C132.953 0.370168 173.02 5.80525 205.33 30.8357C235.121 53.9196 255.259 91.9043 262.051 137.896C268.083 178.858 263.524 220.515 259.111 260.797Z" fill="white" />
  </symbol>
  <symbol id="vector4" viewBox="0 0 120 171">
    <path d="M119.504 170.277C100.098 168.034 81.4088 161.642 64.7184 151.542C48.0279 141.441 33.7308 127.87 22.8072 111.758C12.0479 95.5332 4.94368 77.1856 1.98176 57.9735C-0.980159 38.7614 0.270299 19.1394 5.64737 0.453125L8.40246 1.25466C3.13359 19.5419 1.90488 38.7466 4.80065 57.5508C7.69641 76.3549 14.6481 94.3132 25.1786 110.193C35.8717 125.96 49.8666 139.24 66.2036 149.122C82.5405 159.004 100.833 165.255 119.826 167.445L119.504 170.277Z" fill="white" />
  </symbol>
  <symbol id="vector5" viewBox="0 0 106 112">
    <path d="M26.627 105.454C48.7445 117.858 79.7335 111.095 94.6064 90.6292C119.932 55.7896 98.1519 -16.2407 47.8542 4.09509C6.67365 20.7515 -23.8549 77.1407 26.627 105.454Z" fill="#FC724D" />
  </symbol>
  <symbol id="vector6" viewBox="0 0 230 240">
    <path d="M1.29338 65.9564C-2.45938 88.6052 2.28337 112.048 11.27 133.185C36.1887 191.697 95.6879 234.086 159.385 238.757C174.734 239.887 190.758 238.849 204.556 232.009C218.355 225.17 229.49 211.559 229.928 196.238C230.465 177.628 215.661 161.781 199.23 152.865C182.799 143.949 164.143 139.735 147.551 131.117C126.9 120.376 110.545 102.361 100.676 81.4984C90.8991 60.7885 96.5244 39.1321 89.3873 19.2772C70.6542 -32.883 6.38915 35.2237 1.29338 65.9564Z" fill="#0061FF" />
  </symbol>
  <symbol id="vector7" viewBox="0 0 464 430">
     <path d="M313.816 5.49907C352.058 12.1174 390.644 26.041 417.259 54.1401C445.654 84.1324 456.897 126.407 461.287 167.384C465.577 207.46 464.226 248.582 452.538 287.162C440.85 325.742 418.264 361.727 385.518 385.498C337.852 420.147 275.36 425.399 216.36 428.093C182.961 429.62 149.217 430.696 116.348 424.605C83.4783 418.513 51.1156 404.612 28.4379 380.215C5.7602 355.819 -5.87412 319.857 4.10253 288.101C16.3047 249.01 56.879 223.819 69.2578 184.75C84.8521 135.56 53.2567 59.5065 111.144 29.4532C169.922 -1.05053 249.835 -5.5925 313.816 5.49907Z" fill="#FFD4C9" />
  </symbol>
  <symbol id="vector8" viewBox="0 0 195 224">
    <path d="M67.6354 33.9576C85.0178 18.0416 105.309 3.31646 128.808 0.827917C152.307 -1.66063 178.914 12.4538 182.682 35.6522C187.286 63.8964 158.07 90.2399 164.509 118.141C169.175 138.316 191.262 151.583 194.078 172.087C195.805 184.698 189.389 197.476 179.712 205.812C170.034 214.148 157.525 218.545 144.97 220.98C95.854 230.499 32.9243 207.659 7.36874 162.965C-19.6373 115.728 35.549 63.3162 67.6354 33.9576Z" fill="#3C0506" />
  </symbol>
</svg>