<svg xmlns="http://www.w3.org/2000/svg" style="display: none;">
<symbol id="icon-btn-burger-menu" viewBox="0 0 32 32">
<path fill="none" stroke-linejoin="round" stroke-linecap="round" stroke-miterlimit="4" stroke-width="2.2857" d="M4 11.333h24M4 20.667h24"></path>
</symbol>
<symbol id="icon-btn-close-modal" viewBox="0 0 32 32">
<path fill="none" stroke-linejoin="round" stroke-linecap="round" stroke-miterlimit="4" stroke-width="2.2857" d="M24 8l-16 16"></path>
<path fill="none" stroke-linejoin="round" stroke-linecap="round" stroke-miterlimit="4" stroke-width="2.2857" d="M8 8l16 16"></path>
</symbol>


<symbol id="logo" viewBox="0 0 80 80">
<path fill="#e6d3af" style="fill: var(--color1, #e6d3af)" d="M12.721 13.432h0.356l0.336 0.020 0.454 0.079 0.474 0.158 0.415 0.198 0.336 0.217 0.198 0.158 0.277 0.237 0.138 0.138 0.178 0.217 0.217 0.296 0.198 0.375 0.040 0.119v0.158l-0.138 0.395-0.237 0.711-0.277 0.81-0.119 0.336-0.296 0.849-0.296 0.869-0.138 0.356h-0.020l-0.020-0.217 0.020-0.059h-2.706l-0.217-0.020-0.059-0.040-0.020-0.079-0.020-5.965h-0.158l-0.079-0.020 0.020-0.059 0.336-0.138 0.454-0.079z"></path>
<path fill="#3a624b" style="fill: var(--color2, #3a624b)" d="M6.696 21.886h16.612l1.165 0.040 0.020 0.020v1.956l-0.020 0.020-1.106 0.020h-1.798l-16.435-0.020-0.020-0.020-0.020-0.178v-1.758l0.020-0.040 0.079-0.020zM5.985 22.262l-0.099 0.020v0.928l0.020 0.296 0.020 0.079 0.040 0.020 0.178 0.020h0.356l0.158-0.020 0.020-0.040 0.020-0.237-0.020-0.020-0.336-0.040-0.040-0.988-0.020-0.020zM7.091 22.262l-0.217 0.020-0.020 0.237 0.020 1.067 0.020 0.020h0.83v-0.296l-0.435-0.020v-0.217h0.356l0.020-0.020v-0.277l-0.356-0.040-0.020-0.119h0.237l0.198-0.020 0.020-0.316-0.178-0.020zM8.474 22.262l-0.158 0.040-0.119 0.277-0.119 0.336-0.138 0.375-0.040 0.079v0.198l0.059 0.040h0.296l0.059-0.099 0.040-0.079 0.237-0.020h0.198l0.040 0.178 0.079 0.040 0.356-0.020-0.020-0.158-0.178-0.514-0.119-0.296-0.119-0.336-0.059-0.040zM9.541 22.262l-0.119 0.020-0.020 0.336v0.454l0.020 0.533 0.099 0.020h0.217l0.059-0.020 0.020-0.138v-0.257l0.099 0.099 0.158 0.257 0.079 0.059h0.198l0.138-0.020-0.059-0.198-0.119-0.237v-0.099l0.158-0.138 0.079-0.158v-0.138l-0.059-0.178-0.158-0.138-0.138-0.040-0.277-0.020zM10.765 22.262l-0.059 0.040v1.146l0.020 0.158 0.040 0.020h0.296l0.040-0.138 0.020-0.435 0.020-0.040 0.158 0.198 0.217 0.316 0.059 0.079 0.059 0.020h0.237l0.119-0.040v-1.323h-0.375l-0.040 0.020-0.020 0.573h-0.040l-0.316-0.474-0.099-0.099-0.059-0.020zM13.037 22.262l-0.099 0.040-0.079 0.099-0.119 0.316-0.217 0.593-0.059 0.198v0.099h0.395l0.099-0.178 0.435-0.020 0.040 0.119 0.040 0.079h0.415l-0.395-1.146-0.119-0.178-0.059-0.020zM14.064 22.262l-0.040 0.020-0.020 0.099v1.146l0.040 0.079 0.119 0.020h0.178l0.040-0.020 0.040-0.336 0.020-0.257 0.099 0.079 0.237 0.356 0.119 0.158 0.079 0.020h0.237l0.079-0.020 0.020-0.138v-1.185l-0.158-0.020h-0.198l-0.059 0.020-0.040 0.593-0.138-0.198-0.158-0.237-0.119-0.138-0.138-0.040zM16.948 22.262l-0.040 0.020v0.217l0.119 0.494 0.099 0.454 0.059 0.138 0.020 0.020h0.474l0.059-0.178 0.079-0.296 0.040-0.198 0.119 0.494 0.059 0.178 0.040 0.020h0.375l0.079-0.020 0.059-0.158 0.217-0.928 0.020-0.237-0.119-0.020h-0.257l-0.059 0.099-0.079 0.375-0.040 0.237-0.059-0.237-0.059-0.277-0.079-0.178-0.020-0.020h-0.395l-0.040 0.020-0.158 0.652-0.020 0.040-0.099-0.573-0.040-0.119-0.040-0.020zM19.081 22.262l-0.059 0.040v1.284l0.020 0.020h0.375l0.040-0.514h0.375l0.020 0.494 0.020 0.020 0.277 0.020 0.079-0.020 0.020-0.158v-1.165l-0.040-0.020h-0.277l-0.079 0.020-0.020 0.237v0.237l-0.395-0.020v-0.395l-0.040-0.079zM21.748 22.262l-0.178 0.020-0.020 0.040v1.264l0.020 0.020h0.375l0.020-0.119v-0.296h0.040l0.040 0.119 0.158 0.277 0.020 0.020h0.395l-0.020-0.099-0.198-0.415 0.099-0.040 0.138-0.158 0.040-0.099v-0.158l-0.099-0.198-0.138-0.119-0.099-0.040-0.138-0.020zM23.012 22.262l-0.158 0.020-0.020 0.020v1.244l0.020 0.059h0.83v-0.296l-0.237-0.020h-0.198l0.020-0.178 0.356-0.040v-0.296l-0.336-0.020v-0.138h0.217l0.178-0.020 0.020-0.020v-0.296l-0.178-0.020zM16.375 22.262l-0.079 0.040-0.178 0.336-0.040 0.020-0.119-0.277-0.079-0.099h-0.415l-0.020 0.040 0.217 0.454 0.178 0.356 0.020 0.079 0.040 0.395h0.375l0.059-0.395 0.099-0.237 0.158-0.296 0.158-0.336v-0.059l-0.099-0.020zM20.879 22.262l-0.395 0.020-0.020 0.119v1.185l0.020 0.020 0.632 0.020 0.237-0.020-0.020-0.296-0.435-0.020 0.020-0.198 0.296-0.020 0.059-0.020 0.020-0.040v-0.198l-0.040-0.040-0.316-0.020-0.040-0.020-0.020-0.119 0.454-0.020v-0.316l-0.198-0.020z"></path>
<path fill="#e6d3af" style="fill: var(--color1, #e6d3af)" d="M17.679 14.005h0.237l0.217 0.020 0.059 0.059 0.237 0.711 0.356 1.047 0.296 0.849 0.415 1.244 0.277 0.81 0.217 0.612 0.277 0.849 0.158 0.435 0.020 0.158-0.059 0.040h-0.81l-0.079-0.158-0.099-0.316-0.296-0.968-0.178-0.612-0.020-0.020-0.711-0.020h-1.64l-0.119 0.040-0.079 0.158-0.158 0.533-0.138 0.454-0.158 0.494-0.099 0.296-0.059 0.099-0.040 0.020h-0.711l-0.059-0.040 0.020-0.198 0.178-0.494 0.257-0.751 0.237-0.711 0.257-0.731 0.257-0.79 0.296-0.849 0.138-0.435 0.296-0.869 0.296-0.889 0.059-0.059zM17.64 14.756l-0.138 0.356-0.158 0.593-0.435 1.442-0.198 0.632-0.040 0.158v0.119l0.059 0.020h1.798l0.138-0.040-0.020-0.198-0.237-0.751-0.336-1.086-0.158-0.553-0.119-0.435-0.119-0.257z"></path>
<path fill="#e6d3af" style="fill: var(--color1, #e6d3af)" d="M10.884 14.005h0.435l0.178 0.020 0.059 0.119v4.681l0.020 0.869 0.020 0.375 0.237 0.020 2.489 0.020 0.217 0.020 0.040 0.119v0.533l-0.059 0.059h-3.575l-0.178-0.020-0.059-0.079-0.020-1.027 0.020-5.649 0.020-0.040z"></path>
<path fill="#e6d3af" style="fill: var(--color1, #e6d3af)" d="M10.37 14.38h0.059l0.020 0.079v2.963l0.020 2.39-0.059 0.158-0.099-0.040-0.237-0.237-0.296-0.395-0.178-0.296-0.198-0.415-0.138-0.415-0.099-0.415-0.020-0.217v-0.711l0.040-0.336 0.138-0.494 0.217-0.514 0.178-0.336 0.198-0.277 0.217-0.257 0.138-0.158z"></path>
<path fill="#3a624b" style="fill: var(--color2, #3a624b)" d="M8.533 22.775l0.079 0.020 0.059 0.198v0.099h-0.198l-0.020-0.079z"></path>
<path fill="#3a624b" style="fill: var(--color2, #3a624b)" d="M22.084 22.617h0.099l0.059 0.079-0.020 0.099-0.158 0.059h-0.119l0.040-0.099z"></path>
<path fill="#3a624b" style="fill: var(--color2, #3a624b)" d="M9.975 22.637h0.119l0.020 0.040v0.119l-0.079 0.040h-0.198l-0.020-0.079 0.119-0.099z"></path>
<path fill="#3a624b" style="fill: var(--color2, #3a624b)" d="M13.136 22.775l0.059 0.020 0.059 0.217v0.059l-0.040 0.020h-0.158l-0.020-0.059 0.059-0.099z"></path>
</symbol>
</svg>